<svg xmlns="http://www.w3.org/2000/svg" xmlns:xlink="http://www.w3.org/1999/xlink" width="870px" height="530px" viewBox="0 0  870 530" preserveAspectRatio="xMidYMid meet" ><rect id="svgEditorBackground" x="0" y="0" width="870" height="530" style="fill: none; stroke: none;"/><defs id="svgEditorDefs"><polygon id="svgEditorShapeDefs" style="fill:khaki;stroke:black;vector-effect:non-scaling-stroke;stroke-width:1px;"/></defs><text style="fill:black;font-family:Arial;font-size:20px;" x="205" y="96" id="e2_texte" ><tspan x="348.797" style="text-anchor:end;font-family:Palatino Linotype;fill:darkblue;" dx="" dy="" y="">THE SCHOLAR</tspan><tspan x="348.344" dy="1.25em" style="text-anchor:end;font-size:8px;" dx=""> One Step towards success</tspan></text><g transform="matrix(0.210938 0 0 0.210938 353 81.3125)" style="fill:khaki; stroke:black; vector-effect:non-scaling-stroke;stroke-width:1px;" id="e7_shape"><path d="M6.431,113.286l33.569,6.713999999999999v-104l-30.431,-6.086c-4.95,-0.9900000000000002,-9.569,2.796000000000001,-9.569,7.845000000000001v87.683c0,3.8130000000000024,2.692,7.096999999999994,6.431,7.843999999999994Z" style="fill:forestgreen;"/><path d="M80,112v-104l-32,8v99.2592592592593Z" style="stroke:darkred;fill:brown;"/><path d="M88,8v104l30.430999999999997,6.0859999999999985c4.950000000000003,0.9899999999999949,9.569000000000003,-2.7960000000000065,9.569000000000003,-7.843999999999994v-87.683c0,-3.812999999999999,-2.6920000000000073,-7.097000000000001,-6.430999999999997,-7.844999999999999l-33.569,-6.714Z" style="fill:mediumspringgreen;"/></g></svg>